<svg width="425" height="65" viewBox="0 0 425 65" fill="none" xmlns="http://www.w3.org/2000/svg">
<path d="M5.65833 6.158C6.60099 6.158 7.43633 6.368 8.16433 6.788C8.90166 7.208 9.47099 7.79133 9.87233 8.538C10.283 9.28467 10.4883 10.1387 10.4883 11.1C10.4883 12.0613 10.283 12.92 9.87233 13.676C9.47099 14.4227 8.90166 15.006 8.16433 15.426C7.43633 15.846 6.60099 16.056 5.65833 16.056C4.71566 16.056 3.87566 15.846 3.13833 15.426C2.41033 15.006 1.84099 14.4227 1.43033 13.676C1.02899 12.92 0.828327 12.0613 0.828327 11.1C0.828327 10.1387 1.02899 9.28467 1.43033 8.538C1.84099 7.79133 2.41033 7.208 3.13833 6.788C3.87566 6.368 4.71566 6.158 5.65833 6.158ZM5.65833 6.62C4.78099 6.62 4.01566 6.81133 3.36233 7.194C2.71833 7.56733 2.21899 8.09467 1.86433 8.776C1.50966 9.448 1.33233 10.2227 1.33233 11.1C1.33233 11.9773 1.50966 12.7567 1.86433 13.438C2.21899 14.11 2.72299 14.6373 3.37633 15.02C4.02966 15.3933 4.79033 15.58 5.65833 15.58C6.52633 15.58 7.28699 15.3933 7.94033 15.02C8.59366 14.6373 9.09766 14.11 9.45233 13.438C9.80699 12.7567 9.98433 11.9773 9.98433 11.1C9.98433 10.2227 9.80699 9.448 9.45233 8.776C9.09766 8.09467 8.59366 7.56733 7.94033 7.194C7.29633 6.81133 6.53566 6.62 5.65833 6.62ZM5.65833 7.824C5.09833 7.824 4.58966 7.95467 4.13233 8.216C3.67499 8.47733 3.31099 8.85533 3.04033 9.35C2.76966 9.84467 2.63433 10.4233 2.63433 11.086C2.63433 11.758 2.76966 12.3413 3.04033 12.836C3.31099 13.3307 3.67499 13.7087 4.13233 13.97C4.58966 14.2313 5.09833 14.362 5.65833 14.362C6.34899 14.362 6.95099 14.1753 7.46433 13.802C7.98699 13.4193 8.33699 12.906 8.51433 12.262H7.60433C7.45499 12.71 7.21233 13.0507 6.87633 13.284C6.54033 13.5173 6.13433 13.634 5.65833 13.634C5.04233 13.634 4.52899 13.4147 4.11833 12.976C3.71699 12.528 3.51633 11.9027 3.51633 11.1C3.51633 10.2973 3.71699 9.672 4.11833 9.224C4.52899 8.776 5.04233 8.552 5.65833 8.552C6.11566 8.552 6.51699 8.67333 6.86233 8.916C7.21699 9.14933 7.46433 9.49 7.60433 9.938H8.51433C8.33699 9.266 7.99166 8.748 7.47833 8.384C6.96499 8.01067 6.35833 7.824 5.65833 7.824ZM23.8907 9.07C23.6107 8.426 23.1814 7.922 22.6027 7.558C22.0334 7.18467 21.3614 6.998 20.5867 6.998C19.8587 6.998 19.2054 7.166 18.6267 7.502C18.048 7.838 17.5907 8.31867 17.2547 8.944C16.9187 9.56 16.7507 10.2787 16.7507 11.1C16.7507 11.9213 16.9187 12.6447 17.2547 13.27C17.5907 13.8953 18.048 14.376 18.6267 14.712C19.2054 15.048 19.8587 15.216 20.5867 15.216C21.268 15.216 21.8794 15.0713 22.4207 14.782C22.9714 14.4833 23.41 14.0633 23.7367 13.522C24.0727 12.9713 24.264 12.332 24.3107 11.604H20.1947V10.806H25.3467V11.52C25.3 12.3787 25.0667 13.158 24.6467 13.858C24.2267 14.5487 23.662 15.0947 22.9527 15.496C22.2527 15.8973 21.464 16.098 20.5867 16.098C19.6814 16.098 18.86 15.888 18.1227 15.468C17.3854 15.0387 16.802 14.446 16.3727 13.69C15.9527 12.9247 15.7427 12.0613 15.7427 11.1C15.7427 10.1387 15.9527 9.28 16.3727 8.524C16.802 7.75867 17.3854 7.166 18.1227 6.746C18.86 6.31667 19.6814 6.102 20.5867 6.102C21.632 6.102 22.5467 6.36333 23.3307 6.886C24.1147 7.40867 24.684 8.13667 25.0387 9.07H23.8907ZM28.1219 9.714C28.3365 9.238 28.6632 8.86933 29.1019 8.608C29.5499 8.34667 30.0959 8.216 30.7399 8.216V9.238H30.4739C29.7645 9.238 29.1952 9.42933 28.7659 9.812C28.3365 10.1947 28.1219 10.834 28.1219 11.73V16H27.1419V8.356H28.1219V9.714ZM35.5601 16.112C34.8415 16.112 34.1928 15.9533 33.6141 15.636C33.0448 15.3093 32.5921 14.852 32.2561 14.264C31.9295 13.6667 31.7661 12.9713 31.7661 12.178C31.7661 11.3847 31.9341 10.694 32.2701 10.106C32.6061 9.50867 33.0635 9.05133 33.6421 8.734C34.2208 8.40733 34.8695 8.244 35.5881 8.244C36.3068 8.244 36.9555 8.40733 37.5341 8.734C38.1221 9.05133 38.5795 9.50867 38.9061 10.106C39.2421 10.694 39.4101 11.3847 39.4101 12.178C39.4101 12.962 39.2421 13.6527 38.9061 14.25C38.5701 14.8473 38.1081 15.3093 37.5201 15.636C36.9321 15.9533 36.2788 16.112 35.5601 16.112ZM35.5601 15.258C36.0641 15.258 36.5308 15.146 36.9601 14.922C37.3895 14.6887 37.7348 14.3433 37.9961 13.886C38.2668 13.4193 38.4021 12.85 38.4021 12.178C38.4021 11.506 38.2715 10.9413 38.0101 10.484C37.7488 10.0173 37.4035 9.672 36.9741 9.448C36.5448 9.21467 36.0781 9.098 35.5741 9.098C35.0701 9.098 34.6035 9.21467 34.1741 9.448C33.7448 9.672 33.3995 10.0173 33.1381 10.484C32.8861 10.9413 32.7601 11.506 32.7601 12.178C32.7601 12.85 32.8861 13.4193 33.1381 13.886C33.3995 14.3433 33.7401 14.6887 34.1601 14.922C34.5895 15.146 35.0561 15.258 35.5601 15.258ZM51.2766 8.356L48.8826 16H47.9026L45.7886 9.588L43.6746 16H42.6806L40.2866 8.356H41.2806L43.1846 15.006L45.3266 8.356H46.3066L48.4206 15.02L50.3106 8.356H51.2766ZM55.6226 9.182H53.8446V16H52.8646V9.182H51.8006V8.356H52.8646V7.824C52.8646 6.99333 53.0746 6.382 53.4946 5.99C53.9239 5.598 54.6146 5.402 55.5666 5.402V6.242C54.9319 6.242 54.4839 6.36333 54.2226 6.606C53.9706 6.84867 53.8446 7.25467 53.8446 7.824V8.356H55.6226V9.182ZM63.4653 8.356L58.9293 19.598H57.9073L59.3913 15.958L56.2553 8.356H57.3333L59.9373 14.88L62.4573 8.356H63.4653ZM78.492 10.4V11.226H68.426V10.4H78.492ZM90.6167 9.028C90.6167 9.868 90.3413 10.5447 89.7907 11.058C89.24 11.5713 88.414 11.828 87.3127 11.828H85.3387V16H84.3587V6.214H87.3127C88.4047 6.214 89.226 6.47067 89.7767 6.984C90.3367 7.49733 90.6167 8.17867 90.6167 9.028ZM87.3127 10.988C88.8433 10.988 89.6087 10.3347 89.6087 9.028C89.6087 8.37467 89.4267 7.88 89.0627 7.544C88.6987 7.208 88.1153 7.04 87.3127 7.04H85.3387V10.988H87.3127ZM95.607 16.112C94.8883 16.112 94.2397 15.9533 93.661 15.636C93.0917 15.3093 92.639 14.852 92.303 14.264C91.9763 13.6667 91.813 12.9713 91.813 12.178C91.813 11.3847 91.981 10.694 92.317 10.106C92.653 9.50867 93.1103 9.05133 93.689 8.734C94.2677 8.40733 94.9163 8.244 95.635 8.244C96.3537 8.244 97.0023 8.40733 97.581 8.734C98.169 9.05133 98.6263 9.50867 98.953 10.106C99.289 10.694 99.457 11.3847 99.457 12.178C99.457 12.962 99.289 13.6527 98.953 14.25C98.617 14.8473 98.155 15.3093 97.567 15.636C96.979 15.9533 96.3257 16.112 95.607 16.112ZM95.607 15.258C96.111 15.258 96.5777 15.146 97.007 14.922C97.4363 14.6887 97.7817 14.3433 98.043 13.886C98.3137 13.4193 98.449 12.85 98.449 12.178C98.449 11.506 98.3183 10.9413 98.057 10.484C97.7957 10.0173 97.4503 9.672 97.021 9.448C96.5917 9.21467 96.125 9.098 95.621 9.098C95.117 9.098 94.6503 9.21467 94.221 9.448C93.7917 9.672 93.4463 10.0173 93.185 10.484C92.933 10.9413 92.807 11.506 92.807 12.178C92.807 12.85 92.933 13.4193 93.185 13.886C93.4463 14.3433 93.787 14.6887 94.207 14.922C94.6363 15.146 95.103 15.258 95.607 15.258ZM111.323 8.356L108.929 16H107.949L105.835 9.588L103.721 16H102.727L100.333 8.356H101.327L103.231 15.006L105.373 8.356H106.353L108.467 15.02L110.357 8.356H111.323ZM119.575 11.786C119.575 12.122 119.566 12.3787 119.547 12.556H113.205C113.233 13.1347 113.373 13.6293 113.625 14.04C113.877 14.4507 114.209 14.7633 114.619 14.978C115.03 15.1833 115.478 15.286 115.963 15.286C116.598 15.286 117.13 15.132 117.559 14.824C117.998 14.516 118.287 14.1007 118.427 13.578H119.463C119.277 14.3247 118.875 14.936 118.259 15.412C117.653 15.8787 116.887 16.112 115.963 16.112C115.245 16.112 114.601 15.9533 114.031 15.636C113.462 15.3093 113.014 14.852 112.687 14.264C112.37 13.6667 112.211 12.9713 112.211 12.178C112.211 11.3847 112.37 10.6893 112.687 10.092C113.005 9.49467 113.448 9.03733 114.017 8.72C114.587 8.40267 115.235 8.244 115.963 8.244C116.691 8.244 117.326 8.40267 117.867 8.72C118.418 9.03733 118.838 9.46667 119.127 10.008C119.426 10.54 119.575 11.1327 119.575 11.786ZM118.581 11.758C118.591 11.1887 118.474 10.7033 118.231 10.302C117.998 9.90067 117.676 9.59733 117.265 9.392C116.855 9.18667 116.407 9.084 115.921 9.084C115.193 9.084 114.573 9.31733 114.059 9.784C113.546 10.2507 113.261 10.9087 113.205 11.758H118.581ZM122.348 9.714C122.563 9.238 122.89 8.86933 123.328 8.608C123.776 8.34667 124.322 8.216 124.966 8.216V9.238H124.7C123.991 9.238 123.422 9.42933 122.992 9.812C122.563 10.1947 122.348 10.834 122.348 11.73V16H121.368V8.356H122.348V9.714ZM133.357 11.786C133.357 12.122 133.347 12.3787 133.329 12.556H126.987C127.015 13.1347 127.155 13.6293 127.407 14.04C127.659 14.4507 127.99 14.7633 128.401 14.978C128.811 15.1833 129.259 15.286 129.745 15.286C130.379 15.286 130.911 15.132 131.341 14.824C131.779 14.516 132.069 14.1007 132.209 13.578H133.245C133.058 14.3247 132.657 14.936 132.041 15.412C131.434 15.8787 130.669 16.112 129.745 16.112C129.026 16.112 128.382 15.9533 127.813 15.636C127.243 15.3093 126.795 14.852 126.469 14.264C126.151 13.6667 125.993 12.9713 125.993 12.178C125.993 11.3847 126.151 10.6893 126.469 10.092C126.786 9.49467 127.229 9.03733 127.799 8.72C128.368 8.40267 129.017 8.244 129.745 8.244C130.473 8.244 131.107 8.40267 131.649 8.72C132.199 9.03733 132.619 9.46667 132.909 10.008C133.207 10.54 133.357 11.1327 133.357 11.786ZM132.363 11.758C132.372 11.1887 132.255 10.7033 132.013 10.302C131.779 9.90067 131.457 9.59733 131.047 9.392C130.636 9.18667 130.188 9.084 129.703 9.084C128.975 9.084 128.354 9.31733 127.841 9.784C127.327 10.2507 127.043 10.9087 126.987 11.758H132.363ZM134.702 12.164C134.702 11.38 134.86 10.694 135.178 10.106C135.495 9.50867 135.929 9.05133 136.48 8.734C137.04 8.40733 137.67 8.244 138.37 8.244C139.042 8.244 139.648 8.40733 140.19 8.734C140.731 9.06067 141.128 9.48533 141.38 10.008V5.64H142.36V16H141.38V14.292C141.146 14.824 140.764 15.2627 140.232 15.608C139.7 15.944 139.074 16.112 138.356 16.112C137.656 16.112 137.026 15.9487 136.466 15.622C135.915 15.2953 135.481 14.8333 135.164 14.236C134.856 13.6387 134.702 12.948 134.702 12.164ZM141.38 12.178C141.38 11.562 141.254 11.0207 141.002 10.554C140.75 10.0873 140.404 9.728 139.966 9.476C139.536 9.224 139.06 9.098 138.538 9.098C137.996 9.098 137.511 9.21933 137.082 9.462C136.652 9.70467 136.312 10.0593 136.06 10.526C135.817 10.9833 135.696 11.5293 135.696 12.164C135.696 12.7893 135.817 13.34 136.06 13.816C136.312 14.2827 136.652 14.642 137.082 14.894C137.511 15.1367 137.996 15.258 138.538 15.258C139.06 15.258 139.536 15.132 139.966 14.88C140.404 14.628 140.75 14.2687 141.002 13.802C141.254 13.3353 141.38 12.794 141.38 12.178ZM149.405 10.05C149.657 9.518 150.044 9.084 150.567 8.748C151.099 8.412 151.724 8.244 152.443 8.244C153.143 8.244 153.768 8.40733 154.319 8.734C154.869 9.05133 155.299 9.50867 155.607 10.106C155.924 10.694 156.083 11.38 156.083 12.164C156.083 12.948 155.924 13.6387 155.607 14.236C155.299 14.8333 154.865 15.2953 154.305 15.622C153.754 15.9487 153.133 16.112 152.443 16.112C151.715 16.112 151.085 15.9487 150.553 15.622C150.03 15.286 149.647 14.852 149.405 14.32V16H148.439V5.64H149.405V10.05ZM155.089 12.164C155.089 11.5293 154.963 10.9833 154.711 10.526C154.468 10.0593 154.132 9.70467 153.703 9.462C153.273 9.21933 152.788 9.098 152.247 9.098C151.724 9.098 151.243 9.224 150.805 9.476C150.375 9.728 150.035 10.0873 149.783 10.554C149.531 11.0207 149.405 11.562 149.405 12.178C149.405 12.794 149.531 13.3353 149.783 13.802C150.035 14.2687 150.375 14.628 150.805 14.88C151.243 15.132 151.724 15.258 152.247 15.258C152.788 15.258 153.273 15.1367 153.703 14.894C154.132 14.642 154.468 14.2827 154.711 13.816C154.963 13.34 155.089 12.7893 155.089 12.164ZM164.186 8.356L159.65 19.598H158.628L160.112 15.958L156.976 8.356H158.054L160.658 14.88L163.178 8.356H164.186Z" fill="#9C9C9C"/>
<g clip-path="url(#clip0_1_595)">
<path d="M188.861 10.4254C188.861 9.35871 187.838 8.24004 186.059 8.24004C184.065 8.24004 181.875 9.70871 181.539 12.64C181.197 15.6 183.031 16.9154 184.879 16.9154C186.728 16.9154 187.696 16.192 188.686 15.2274C187.835 14.154 186.735 14.65 186.525 14.7594C186.176 14.9534 185.781 15.05 185.382 15.0374C184.669 15.0374 183.941 14.716 183.941 13.3787C188.511 12.9254 188.861 11.4854 188.861 10.4254H188.861ZM186.596 10.6007C186.567 10.9294 186.436 11.492 184.121 11.8074C184.608 10.0674 185.541 9.93671 185.97 9.93671C185.979 9.93604 185.989 9.93604 185.997 9.93604C186.33 9.93604 186.603 10.2094 186.603 10.542C186.603 10.562 186.603 10.582 186.601 10.602L186.596 10.6007ZM178.855 10.886L177.792 14.2407L177.042 8.41604C175.369 8.41604 174.469 9.61471 173.999 10.8787L172.703 14.248L172.521 10.9147C172.423 9.36538 171.008 8.42271 169.865 8.42271L171.247 16.8494C173.001 16.8427 173.947 15.6507 174.443 14.3867L175.539 11.522C175.549 11.6387 176.296 16.85 176.296 16.85C178.057 16.85 179.004 15.732 179.511 14.5114L181.978 8.42338C180.241 8.42338 179.326 9.61471 178.853 10.886H178.855ZM195.325 8.21938C194.241 8.21938 193.412 8.81138 192.712 9.68071V9.67404L193.337 4.60938C191.896 4.60938 190.724 5.86671 190.499 7.73738L189.415 16.784C190.245 16.784 191.125 16.5427 191.599 15.9287C192.021 16.4767 192.654 16.9154 193.593 16.9154C196.024 16.9154 197.691 14.08 197.691 11.4194C197.677 8.99271 196.505 8.22604 195.333 8.22604L195.325 8.21938ZM195.099 12.568C194.845 14.0514 194.021 15.06 193.229 15.06C192.436 15.06 192.086 14.702 192.086 14.702C192.239 13.402 192.334 12.6047 192.625 11.9174C192.915 11.23 193.607 10.134 194.328 10.134C195.035 10.134 195.355 11.0767 195.099 12.5674L195.099 12.568ZM203.753 8.41671H202.057L202.064 8.32871C202.181 7.21804 202.443 6.63337 203.307 6.53804C203.897 6.47937 204.159 6.17271 204.224 5.83671L204.435 4.66004C201.035 4.63804 199.959 6.11338 199.685 8.36538L199.679 8.41671H199.642C199.089 8.41671 198.478 9.04538 198.375 9.84204L198.339 10.134H199.475L198.521 18.0407L198.229 19.4587C198.266 19.4587 198.309 19.4654 198.345 19.4654C199.939 19.4067 200.959 18.1427 201.184 16.308L201.928 10.1327H202.461C202.985 10.1327 203.597 9.60604 203.704 8.72937L203.753 8.41671ZM212.575 8.27004C210.617 8.27004 208.768 9.71671 208.201 11.99C207.635 14.2634 208.493 16.952 211.375 16.952C214.256 16.952 215.906 14.152 215.906 11.8214C215.909 9.50471 214.345 8.26937 212.575 8.26937L212.575 8.27004ZM213.368 12.494C213.267 13.5247 212.815 15.0887 211.577 15.0887C210.34 15.0887 210.507 13.262 210.627 12.392C210.759 11.464 211.275 10.1414 212.389 10.1414C213.39 10.1414 213.484 11.3327 213.369 12.4947L213.368 12.494ZM225.581 10.8787L224.519 14.2334C224.49 13.97 223.769 8.40871 223.769 8.40871C222.096 8.40871 221.2 9.60737 220.731 10.8714L219.435 14.2407C219.428 13.9994 219.253 10.9074 219.253 10.9074C219.147 9.35804 217.734 8.41537 216.586 8.41537L217.961 16.842C219.715 16.8354 220.661 15.6434 221.157 14.3794L222.249 11.5147C222.255 11.6314 223.006 16.8427 223.006 16.8427C224.767 16.8427 225.71 15.7247 226.221 14.504L228.69 8.41604C226.958 8.41604 226.041 9.60738 225.575 10.8787H225.581ZM205.355 4.65871L203.928 16.212L203.636 17.6374C203.672 17.6374 203.716 17.644 203.752 17.644C205.287 17.622 206.379 16.2707 206.583 14.5674L207.405 7.93871C207.655 5.91404 206.454 4.65738 205.355 4.65738V4.65871Z" fill="white"/>
</g>
<path d="M245.374 10.4V11.226H235.308V10.4H245.374ZM250.793 11.1C250.793 10.1387 251.003 9.28 251.423 8.524C251.843 7.75867 252.417 7.166 253.145 6.746C253.873 6.31667 254.685 6.102 255.581 6.102C256.673 6.102 257.606 6.36333 258.381 6.886C259.165 7.39933 259.734 8.12733 260.089 9.07H258.941C258.661 8.40733 258.231 7.88933 257.653 7.516C257.083 7.14267 256.393 6.956 255.581 6.956C254.862 6.956 254.213 7.124 253.635 7.46C253.065 7.796 252.617 8.28133 252.291 8.916C251.964 9.54133 251.801 10.2693 251.801 11.1C251.801 11.9307 251.964 12.6587 252.291 13.284C252.617 13.9093 253.065 14.39 253.635 14.726C254.213 15.062 254.862 15.23 255.581 15.23C256.393 15.23 257.083 15.048 257.653 14.684C258.231 14.3107 258.661 13.7973 258.941 13.144H260.089C259.734 14.0773 259.165 14.8007 258.381 15.314C257.597 15.8273 256.663 16.084 255.581 16.084C254.685 16.084 253.873 15.874 253.145 15.454C252.417 15.0247 251.843 14.432 251.423 13.676C251.003 12.92 250.793 12.0613 250.793 11.1ZM263.021 9.714C263.236 9.238 263.563 8.86933 264.001 8.608C264.449 8.34667 264.995 8.216 265.639 8.216V9.238H265.373C264.664 9.238 264.095 9.42933 263.665 9.812C263.236 10.1947 263.021 10.834 263.021 11.73V16H262.041V8.356H263.021V9.714ZM274.03 11.786C274.03 12.122 274.02 12.3787 274.002 12.556H267.66C267.688 13.1347 267.828 13.6293 268.08 14.04C268.332 14.4507 268.663 14.7633 269.074 14.978C269.484 15.1833 269.932 15.286 270.418 15.286C271.052 15.286 271.584 15.132 272.014 14.824C272.452 14.516 272.742 14.1007 272.882 13.578H273.918C273.731 14.3247 273.33 14.936 272.714 15.412C272.107 15.8787 271.342 16.112 270.418 16.112C269.699 16.112 269.055 15.9533 268.486 15.636C267.916 15.3093 267.468 14.852 267.142 14.264C266.824 13.6667 266.666 12.9713 266.666 12.178C266.666 11.3847 266.824 10.6893 267.142 10.092C267.459 9.49467 267.902 9.03733 268.472 8.72C269.041 8.40267 269.69 8.244 270.418 8.244C271.146 8.244 271.78 8.40267 272.322 8.72C272.872 9.03733 273.292 9.46667 273.582 10.008C273.88 10.54 274.03 11.1327 274.03 11.786ZM273.036 11.758C273.045 11.1887 272.928 10.7033 272.686 10.302C272.452 9.90067 272.13 9.59733 271.72 9.392C271.309 9.18667 270.861 9.084 270.376 9.084C269.648 9.084 269.027 9.31733 268.514 9.784C268 10.2507 267.716 10.9087 267.66 11.758H273.036ZM275.375 12.164C275.375 11.38 275.529 10.694 275.837 10.106C276.154 9.50867 276.588 9.05133 277.139 8.734C277.699 8.40733 278.329 8.244 279.029 8.244C279.757 8.244 280.382 8.412 280.905 8.748C281.437 9.084 281.819 9.51333 282.053 10.036V8.356H283.033V16H282.053V14.306C281.81 14.8287 281.423 15.2627 280.891 15.608C280.368 15.944 279.743 16.112 279.015 16.112C278.324 16.112 277.699 15.9487 277.139 15.622C276.588 15.2953 276.154 14.8333 275.837 14.236C275.529 13.6387 275.375 12.948 275.375 12.164ZM282.053 12.178C282.053 11.562 281.927 11.0207 281.675 10.554C281.423 10.0873 281.077 9.728 280.639 9.476C280.209 9.224 279.733 9.098 279.211 9.098C278.669 9.098 278.184 9.21933 277.755 9.462C277.325 9.70467 276.985 10.0593 276.733 10.526C276.49 10.9833 276.369 11.5293 276.369 12.164C276.369 12.7893 276.49 13.34 276.733 13.816C276.985 14.2827 277.325 14.642 277.755 14.894C278.184 15.1367 278.669 15.258 279.211 15.258C279.733 15.258 280.209 15.132 280.639 14.88C281.077 14.628 281.423 14.2687 281.675 13.802C281.927 13.3353 282.053 12.794 282.053 12.178ZM286.544 9.182V13.928C286.544 14.3947 286.632 14.7167 286.81 14.894C286.987 15.0713 287.3 15.16 287.748 15.16H288.644V16H287.594C286.903 16 286.39 15.8413 286.054 15.524C285.718 15.1973 285.55 14.6653 285.55 13.928V9.182H284.486V8.356H285.55V6.438H286.544V8.356H288.644V9.182H286.544ZM297.176 11.786C297.176 12.122 297.167 12.3787 297.148 12.556H290.806C290.834 13.1347 290.974 13.6293 291.226 14.04C291.478 14.4507 291.809 14.7633 292.22 14.978C292.631 15.1833 293.079 15.286 293.564 15.286C294.199 15.286 294.731 15.132 295.16 14.824C295.599 14.516 295.888 14.1007 296.028 13.578H297.064C296.877 14.3247 296.476 14.936 295.86 15.412C295.253 15.8787 294.488 16.112 293.564 16.112C292.845 16.112 292.201 15.9533 291.632 15.636C291.063 15.3093 290.615 14.852 290.288 14.264C289.971 13.6667 289.812 12.9713 289.812 12.178C289.812 11.3847 289.971 10.6893 290.288 10.092C290.605 9.49467 291.049 9.03733 291.618 8.72C292.187 8.40267 292.836 8.244 293.564 8.244C294.292 8.244 294.927 8.40267 295.468 8.72C296.019 9.03733 296.439 9.46667 296.728 10.008C297.027 10.54 297.176 11.1327 297.176 11.786ZM296.182 11.758C296.191 11.1887 296.075 10.7033 295.832 10.302C295.599 9.90067 295.277 9.59733 294.866 9.392C294.455 9.18667 294.007 9.084 293.522 9.084C292.794 9.084 292.173 9.31733 291.66 9.784C291.147 10.2507 290.862 10.9087 290.806 11.758H296.182ZM298.521 12.164C298.521 11.38 298.68 10.694 298.997 10.106C299.314 9.50867 299.748 9.05133 300.299 8.734C300.859 8.40733 301.489 8.244 302.189 8.244C302.861 8.244 303.468 8.40733 304.009 8.734C304.55 9.06067 304.947 9.48533 305.199 10.008V5.64H306.179V16H305.199V14.292C304.966 14.824 304.583 15.2627 304.051 15.608C303.519 15.944 302.894 16.112 302.175 16.112C301.475 16.112 300.845 15.9487 300.285 15.622C299.734 15.2953 299.3 14.8333 298.983 14.236C298.675 13.6387 298.521 12.948 298.521 12.164ZM305.199 12.178C305.199 11.562 305.073 11.0207 304.821 10.554C304.569 10.0873 304.224 9.728 303.785 9.476C303.356 9.224 302.88 9.098 302.357 9.098C301.816 9.098 301.33 9.21933 300.901 9.462C300.472 9.70467 300.131 10.0593 299.879 10.526C299.636 10.9833 299.515 11.5293 299.515 12.164C299.515 12.7893 299.636 13.34 299.879 13.816C300.131 14.2827 300.472 14.642 300.901 14.894C301.33 15.1367 301.816 15.258 302.357 15.258C302.88 15.258 303.356 15.132 303.785 14.88C304.224 14.628 304.569 14.2687 304.821 13.802C305.073 13.3353 305.199 12.794 305.199 12.178ZM313.224 10.05C313.476 9.518 313.863 9.084 314.386 8.748C314.918 8.412 315.543 8.244 316.262 8.244C316.962 8.244 317.587 8.40733 318.138 8.734C318.689 9.05133 319.118 9.50867 319.426 10.106C319.743 10.694 319.902 11.38 319.902 12.164C319.902 12.948 319.743 13.6387 319.426 14.236C319.118 14.8333 318.684 15.2953 318.124 15.622C317.573 15.9487 316.953 16.112 316.262 16.112C315.534 16.112 314.904 15.9487 314.372 15.622C313.849 15.286 313.467 14.852 313.224 14.32V16H312.258V5.64H313.224V10.05ZM318.908 12.164C318.908 11.5293 318.782 10.9833 318.53 10.526C318.287 10.0593 317.951 9.70467 317.522 9.462C317.093 9.21933 316.607 9.098 316.066 9.098C315.543 9.098 315.063 9.224 314.624 9.476C314.195 9.728 313.854 10.0873 313.602 10.554C313.35 11.0207 313.224 11.562 313.224 12.178C313.224 12.794 313.35 13.3353 313.602 13.802C313.854 14.2687 314.195 14.628 314.624 14.88C315.063 15.132 315.543 15.258 316.066 15.258C316.607 15.258 317.093 15.1367 317.522 14.894C317.951 14.642 318.287 14.2827 318.53 13.816C318.782 13.34 318.908 12.7893 318.908 12.164ZM328.005 8.356L323.469 19.598H322.447L323.931 15.958L320.795 8.356H321.873L324.477 14.88L326.997 8.356H328.005ZM423.032 16.07C422.826 16.07 422.654 16 422.514 15.86C422.383 15.72 422.318 15.5473 422.318 15.342C422.318 15.1367 422.383 14.9687 422.514 14.838C422.654 14.698 422.826 14.628 423.032 14.628C423.228 14.628 423.391 14.698 423.522 14.838C423.662 14.9687 423.732 15.1367 423.732 15.342C423.732 15.5473 423.662 15.72 423.522 15.86C423.391 16 423.228 16.07 423.032 16.07Z" fill="#9C9C9C"/>
<path d="M334.156 7.012V10.666H337.866V11.478H334.156V15.188H338.286V16H333.176V6.2H338.286V7.012H334.156ZM341.197 5.64V16H340.217V5.64H341.197ZM343.906 6.914C343.71 6.914 343.542 6.844 343.402 6.704C343.262 6.564 343.192 6.39133 343.192 6.186C343.192 5.98067 343.262 5.81267 343.402 5.682C343.542 5.542 343.71 5.472 343.906 5.472C344.102 5.472 344.27 5.542 344.41 5.682C344.55 5.81267 344.62 5.98067 344.62 6.186C344.62 6.39133 344.55 6.564 344.41 6.704C344.27 6.844 344.102 6.914 343.906 6.914ZM344.396 8.356V16H343.416V8.356H344.396ZM349.248 16.112C348.37 16.112 347.652 15.9113 347.092 15.51C346.541 15.0993 346.233 14.544 346.168 13.844H347.176C347.222 14.2733 347.423 14.6233 347.778 14.894C348.142 15.1553 348.627 15.286 349.234 15.286C349.766 15.286 350.181 15.16 350.48 14.908C350.788 14.656 350.942 14.3433 350.942 13.97C350.942 13.7087 350.858 13.494 350.69 13.326C350.522 13.158 350.307 13.0273 350.046 12.934C349.794 12.8313 349.448 12.724 349.01 12.612C348.44 12.4627 347.978 12.3133 347.624 12.164C347.269 12.0147 346.966 11.7953 346.714 11.506C346.471 11.2073 346.35 10.8107 346.35 10.316C346.35 9.94267 346.462 9.59733 346.686 9.28C346.91 8.96267 347.227 8.71067 347.638 8.524C348.048 8.33733 348.515 8.244 349.038 8.244C349.859 8.244 350.522 8.454 351.026 8.874C351.53 9.28467 351.8 9.854 351.838 10.582H350.858C350.83 10.134 350.652 9.77467 350.326 9.504C350.008 9.224 349.57 9.084 349.01 9.084C348.515 9.084 348.114 9.20067 347.806 9.434C347.498 9.66733 347.344 9.95667 347.344 10.302C347.344 10.6007 347.432 10.848 347.61 11.044C347.796 11.2307 348.025 11.38 348.296 11.492C348.566 11.5947 348.93 11.7113 349.388 11.842C349.938 11.9913 350.377 12.136 350.704 12.276C351.03 12.416 351.31 12.6213 351.544 12.892C351.777 13.1627 351.898 13.522 351.908 13.97C351.908 14.3807 351.796 14.7493 351.572 15.076C351.348 15.3933 351.035 15.6453 350.634 15.832C350.232 16.0187 349.77 16.112 349.248 16.112ZM357.098 16.112C356.38 16.112 355.731 15.9533 355.152 15.636C354.583 15.3093 354.13 14.852 353.794 14.264C353.468 13.6667 353.304 12.9713 353.304 12.178C353.304 11.3847 353.472 10.694 353.808 10.106C354.144 9.50867 354.602 9.05133 355.18 8.734C355.759 8.40733 356.408 8.244 357.126 8.244C357.845 8.244 358.494 8.40733 359.072 8.734C359.66 9.05133 360.118 9.50867 360.444 10.106C360.78 10.694 360.948 11.3847 360.948 12.178C360.948 12.962 360.78 13.6527 360.444 14.25C360.108 14.8473 359.646 15.3093 359.058 15.636C358.47 15.9533 357.817 16.112 357.098 16.112ZM357.098 15.258C357.602 15.258 358.069 15.146 358.498 14.922C358.928 14.6887 359.273 14.3433 359.534 13.886C359.805 13.4193 359.94 12.85 359.94 12.178C359.94 11.506 359.81 10.9413 359.548 10.484C359.287 10.0173 358.942 9.672 358.512 9.448C358.083 9.21467 357.616 9.098 357.112 9.098C356.608 9.098 356.142 9.21467 355.712 9.448C355.283 9.672 354.938 10.0173 354.676 10.484C354.424 10.9413 354.298 11.506 354.298 12.178C354.298 12.85 354.424 13.4193 354.676 13.886C354.938 14.3433 355.278 14.6887 355.698 14.922C356.128 15.146 356.594 15.258 357.098 15.258ZM366.319 8.216C367.233 8.216 367.98 8.50067 368.559 9.07C369.137 9.63 369.427 10.4467 369.427 11.52V16H368.461V11.632C368.461 10.8013 368.251 10.1667 367.831 9.728C367.42 9.28933 366.855 9.07 366.137 9.07C365.399 9.07 364.811 9.30333 364.373 9.77C363.934 10.2367 363.715 10.9227 363.715 11.828V16H362.735V8.356H363.715V9.658C363.957 9.19133 364.307 8.83667 364.765 8.594C365.222 8.342 365.74 8.216 366.319 8.216ZM378.404 16.098C377.76 16.098 377.19 15.986 376.696 15.762C376.21 15.538 375.828 15.2253 375.548 14.824C375.268 14.4227 375.118 13.9747 375.1 13.48H376.136C376.182 13.956 376.392 14.376 376.766 14.74C377.139 15.0947 377.685 15.272 378.404 15.272C379.066 15.272 379.589 15.104 379.972 14.768C380.364 14.4227 380.56 13.9887 380.56 13.466C380.56 13.046 380.452 12.71 380.238 12.458C380.023 12.1967 379.757 12.0053 379.44 11.884C379.122 11.7533 378.684 11.6133 378.124 11.464C377.47 11.2867 376.952 11.114 376.57 10.946C376.187 10.778 375.86 10.5167 375.59 10.162C375.319 9.80733 375.184 9.32667 375.184 8.72C375.184 8.216 375.314 7.768 375.576 7.376C375.837 6.97467 376.206 6.662 376.682 6.438C377.158 6.214 377.704 6.102 378.32 6.102C379.225 6.102 379.953 6.326 380.504 6.774C381.064 7.21267 381.386 7.782 381.47 8.482H380.406C380.34 8.08067 380.121 7.726 379.748 7.418C379.374 7.10067 378.87 6.942 378.236 6.942C377.648 6.942 377.158 7.10067 376.766 7.418C376.374 7.726 376.178 8.15067 376.178 8.692C376.178 9.10267 376.285 9.434 376.5 9.686C376.714 9.938 376.98 10.1293 377.298 10.26C377.624 10.3907 378.063 10.5307 378.614 10.68C379.248 10.8573 379.762 11.0347 380.154 11.212C380.546 11.38 380.877 11.6413 381.148 11.996C381.418 12.3507 381.554 12.8267 381.554 13.424C381.554 13.8813 381.432 14.3153 381.19 14.726C380.947 15.1367 380.588 15.468 380.112 15.72C379.636 15.972 379.066 16.098 378.404 16.098ZM383 12.164C383 11.38 383.154 10.694 383.462 10.106C383.779 9.50867 384.213 9.05133 384.764 8.734C385.324 8.40733 385.954 8.244 386.654 8.244C387.382 8.244 388.007 8.412 388.53 8.748C389.062 9.084 389.444 9.51333 389.678 10.036V8.356H390.658V16H389.678V14.306C389.435 14.8287 389.048 15.2627 388.516 15.608C387.993 15.944 387.368 16.112 386.64 16.112C385.949 16.112 385.324 15.9487 384.764 15.622C384.213 15.2953 383.779 14.8333 383.462 14.236C383.154 13.6387 383 12.948 383 12.164ZM389.678 12.178C389.678 11.562 389.552 11.0207 389.3 10.554C389.048 10.0873 388.702 9.728 388.264 9.476C387.834 9.224 387.358 9.098 386.836 9.098C386.294 9.098 385.809 9.21933 385.38 9.462C384.95 9.70467 384.61 10.0593 384.358 10.526C384.115 10.9833 383.994 11.5293 383.994 12.164C383.994 12.7893 384.115 13.34 384.358 13.816C384.61 14.2827 384.95 14.642 385.38 14.894C385.809 15.1367 386.294 15.258 386.836 15.258C387.358 15.258 387.834 15.132 388.264 14.88C388.702 14.628 389.048 14.2687 389.3 13.802C389.552 13.3353 389.678 12.794 389.678 12.178ZM396.479 8.216C397.393 8.216 398.14 8.50067 398.719 9.07C399.297 9.63 399.587 10.4467 399.587 11.52V16H398.621V11.632C398.621 10.8013 398.411 10.1667 397.991 9.728C397.58 9.28933 397.015 9.07 396.297 9.07C395.559 9.07 394.971 9.30333 394.533 9.77C394.094 10.2367 393.875 10.9227 393.875 11.828V16H392.895V8.356H393.875V9.658C394.117 9.19133 394.467 8.83667 394.925 8.594C395.382 8.342 395.9 8.216 396.479 8.216ZM403.028 9.182V13.928C403.028 14.3947 403.117 14.7167 403.294 14.894C403.472 15.0713 403.784 15.16 404.232 15.16H405.128V16H404.078C403.388 16 402.874 15.8413 402.538 15.524C402.202 15.1973 402.034 14.6653 402.034 13.928V9.182H400.97V8.356H402.034V6.438H403.028V8.356H405.128V9.182H403.028ZM410.09 16.112C409.372 16.112 408.723 15.9533 408.144 15.636C407.575 15.3093 407.122 14.852 406.786 14.264C406.46 13.6667 406.296 12.9713 406.296 12.178C406.296 11.3847 406.464 10.694 406.8 10.106C407.136 9.50867 407.594 9.05133 408.172 8.734C408.751 8.40733 409.4 8.244 410.118 8.244C410.837 8.244 411.486 8.40733 412.064 8.734C412.652 9.05133 413.11 9.50867 413.436 10.106C413.772 10.694 413.94 11.3847 413.94 12.178C413.94 12.962 413.772 13.6527 413.436 14.25C413.1 14.8473 412.638 15.3093 412.05 15.636C411.462 15.9533 410.809 16.112 410.09 16.112ZM410.09 15.258C410.594 15.258 411.061 15.146 411.49 14.922C411.92 14.6887 412.265 14.3433 412.526 13.886C412.797 13.4193 412.932 12.85 412.932 12.178C412.932 11.506 412.802 10.9413 412.54 10.484C412.279 10.0173 411.934 9.672 411.504 9.448C411.075 9.21467 410.608 9.098 410.104 9.098C409.6 9.098 409.134 9.21467 408.704 9.448C408.275 9.672 407.93 10.0173 407.668 10.484C407.416 10.9413 407.29 11.506 407.29 12.178C407.29 12.85 407.416 13.4193 407.668 13.886C407.93 14.3433 408.27 14.6887 408.69 14.922C409.12 15.146 409.586 15.258 410.09 15.258ZM418.359 16.112C417.482 16.112 416.763 15.9113 416.203 15.51C415.652 15.0993 415.344 14.544 415.279 13.844H416.287C416.334 14.2733 416.534 14.6233 416.889 14.894C417.253 15.1553 417.738 15.286 418.345 15.286C418.877 15.286 419.292 15.16 419.591 14.908C419.899 14.656 420.053 14.3433 420.053 13.97C420.053 13.7087 419.969 13.494 419.801 13.326C419.633 13.158 419.418 13.0273 419.157 12.934C418.905 12.8313 418.56 12.724 418.121 12.612C417.552 12.4627 417.09 12.3133 416.735 12.164C416.38 12.0147 416.077 11.7953 415.825 11.506C415.582 11.2073 415.461 10.8107 415.461 10.316C415.461 9.94267 415.573 9.59733 415.797 9.28C416.021 8.96267 416.338 8.71067 416.749 8.524C417.16 8.33733 417.626 8.244 418.149 8.244C418.97 8.244 419.633 8.454 420.137 8.874C420.641 9.28467 420.912 9.854 420.949 10.582H419.969C419.941 10.134 419.764 9.77467 419.437 9.504C419.12 9.224 418.681 9.084 418.121 9.084C417.626 9.084 417.225 9.20067 416.917 9.434C416.609 9.66733 416.455 9.95667 416.455 10.302C416.455 10.6007 416.544 10.848 416.721 11.044C416.908 11.2307 417.136 11.38 417.407 11.492C417.678 11.5947 418.042 11.7113 418.499 11.842C419.05 11.9913 419.488 12.136 419.815 12.276C420.142 12.416 420.422 12.6213 420.655 12.892C420.888 13.1627 421.01 13.522 421.019 13.97C421.019 14.3807 420.907 14.7493 420.683 15.076C420.459 15.3933 420.146 15.6453 419.745 15.832C419.344 16.0187 418.882 16.112 418.359 16.112Z" fill="white"/>
<defs>
<clipPath id="clip0_1_595">
<rect width="60" height="60" fill="white" transform="translate(169.281 4.17188)"/>
</clipPath>
</defs>
</svg>
