<svg width="316" height="340" viewBox="0 0 316 340" fill="none" xmlns="http://www.w3.org/2000/svg">
<rect width="315.625" height="340" rx="30" fill="#81818B" fill-opacity="0.1"/>
<g clip-path="url(#clip0_1_227)">
<g clip-path="url(#clip1_1_227)">
<path opacity="0.06" d="M79.6848 55H45.9089C34.3612 55 25 64.3612 25 75.9089V109.685C25 121.233 34.3612 130.594 45.9089 130.594H79.6848C91.2325 130.594 100.594 121.233 100.594 109.685V75.9089C100.594 64.3612 91.2325 55 79.6848 55Z" fill="#0089FF"/>
<path d="M62.797 118.537C77.013 118.537 88.5374 107.013 88.5374 92.7969C88.5374 78.5809 77.013 67.0565 62.797 67.0565C48.5809 67.0565 37.0566 78.5809 37.0566 92.7969C37.0566 107.013 48.5809 118.537 62.797 118.537Z" fill="#1B76FF"/>
<path fill-rule="evenodd" clip-rule="evenodd" d="M49.387 87.7031H54.0328V105.864H49.387C48.6875 105.864 48.1204 105.324 48.1204 104.658V88.9094C48.1204 88.2432 48.6875 87.7031 49.387 87.7031Z" stroke="white" stroke-width="1.60838" stroke-linecap="round" stroke-linejoin="round"/>
<path fill-rule="evenodd" clip-rule="evenodd" d="M76.0609 102.464C75.7668 104.728 74.2545 105.864 71.566 105.864H57.4984C55.5871 105.864 54.0328 104.401 54.0328 102.602V87.7249C58.4941 87.29 60.7247 85.7326 60.7247 81.5448V79.5379C60.7247 77.4227 62.5252 75.7079 64.7462 75.7079C65.5926 75.7079 66.4173 75.9622 67.1032 76.4346C68.0483 77.087 68.6506 78.3225 68.6506 80.1017V85.9109C68.6506 86.405 69.4871 86.8103 70.3236 86.8103H74.8111C76.7015 86.8103 78.2347 88.2336 78.2767 90.0029C78.3048 91.1824 77.5661 94.8335 76.0609 102.464Z" stroke="white" stroke-width="1.60838" stroke-linecap="round" stroke-linejoin="round"/>
</g>
</g>
<defs>
<clipPath id="clip0_1_227">
<rect width="75.5938" height="75.5938" fill="white" transform="translate(25 55)"/>
</clipPath>
<clipPath id="clip1_1_227">
<rect width="75.5938" height="75.5938" fill="white" transform="translate(25 55)"/>
</clipPath>
</defs>
</svg>
