<svg width="316" height="336" viewBox="0 0 316 336" fill="none" xmlns="http://www.w3.org/2000/svg">
<rect width="315.625" height="335.594" rx="30" fill="#81818B" fill-opacity="0.1"/>
<g clip-path="url(#clip0_1_240)">
<g clip-path="url(#clip1_1_240)">
<path opacity="0.06" d="M79.6848 55H45.9089C34.3612 55 25 64.3612 25 75.9089V109.685C25 121.233 34.3612 130.594 45.9089 130.594H79.6848C91.2325 130.594 100.594 121.233 100.594 109.685V75.9089C100.594 64.3612 91.2325 55 79.6848 55Z" fill="#FF6F35"/>
<path d="M62.7969 118.537C77.013 118.537 88.5373 107.013 88.5373 92.797C88.5373 78.581 77.013 67.0566 62.7969 67.0566C48.5809 67.0566 37.0565 78.581 37.0565 92.797C37.0565 107.013 48.5809 118.537 62.7969 118.537Z" fill="#FFCD1D"/>
<path d="M62.7969 76.5791V109.015" stroke="white" stroke-width="2.41257" stroke-linecap="round" stroke-linejoin="round"/>
<path d="M70.1686 82.4766H59.111C57.7425 82.4766 56.43 83.0202 55.4622 83.988C54.4944 84.9556 53.9508 86.2682 53.9508 87.6367C53.9508 89.0053 54.4944 90.3178 55.4622 91.2856C56.43 92.2532 57.7425 92.797 59.111 92.797H66.4827C67.8513 92.797 69.1638 93.3406 70.1316 94.3084C71.0993 95.276 71.643 96.5885 71.643 97.9572C71.643 99.3258 71.0993 100.638 70.1316 101.606C69.1638 102.574 67.8513 103.117 66.4827 103.117H53.9508" stroke="white" stroke-width="2.41257" stroke-linecap="round" stroke-linejoin="round"/>
</g>
</g>
<defs>
<clipPath id="clip0_1_240">
<rect width="75.5938" height="75.5938" fill="white" transform="translate(25 55)"/>
</clipPath>
<clipPath id="clip1_1_240">
<rect width="75.5938" height="75.5938" fill="white" transform="translate(25 55)"/>
</clipPath>
</defs>
</svg>
