<svg width="316" height="336" viewBox="0 0 316 336" fill="none" xmlns="http://www.w3.org/2000/svg">
<rect width="315.625" height="335.594" rx="30" fill="#81818B" fill-opacity="0.1"/>
<g clip-path="url(#clip0_1_252)">
<g clip-path="url(#clip1_1_252)">
<path opacity="0.06" d="M79.6848 55H45.9089C34.3612 55 25 64.3612 25 75.9089V109.685C25 121.233 34.3612 130.594 45.9089 130.594H79.6848C91.2325 130.594 100.594 121.233 100.594 109.685V75.9089C100.594 64.3612 91.2325 55 79.6848 55Z" fill="#5CC97B"/>
<path d="M62.7969 118.537C77.013 118.537 88.5373 107.013 88.5373 92.7969C88.5373 78.5809 77.013 67.0565 62.7969 67.0565C48.5809 67.0565 37.0565 78.5809 37.0565 92.7969C37.0565 107.013 48.5809 118.537 62.7969 118.537Z" fill="#5CC97B"/>
<path fill-rule="evenodd" clip-rule="evenodd" d="M65.5539 99.1698C63.7109 100.389 61.4812 101.06 59.1054 100.961C53.0962 100.713 48.4258 95.6402 48.674 89.6308C48.9222 83.6213 53.995 78.9517 60.0041 79.1999C66.0123 79.448 70.6838 84.5201 70.4356 90.5295C70.3481 92.6478 69.661 94.5998 68.5447 96.2286L75.8813 103.352C76.7865 104.334 76.7541 105.851 75.8241 106.791L75.7813 106.83L75.7361 106.869C74.7251 107.719 73.2105 107.627 72.3062 106.645L65.5539 99.1698ZM59.2091 98.4497C54.5869 98.2588 50.9941 94.3563 51.185 89.7341C51.3759 85.1119 55.2782 81.5191 59.9005 81.71C64.5227 81.9009 68.1156 85.8032 67.9247 90.4255C67.7338 95.0477 63.8314 98.6405 59.2091 98.4497Z" fill="white"/>
</g>
</g>
<defs>
<clipPath id="clip0_1_252">
<rect width="75.5938" height="75.5938" fill="white" transform="translate(25 55)"/>
</clipPath>
<clipPath id="clip1_1_252">
<rect width="75.5938" height="75.5938" fill="white" transform="translate(25 55)"/>
</clipPath>
</defs>
</svg>
