<svg width="316" height="712" viewBox="0 0 316 712" fill="none" xmlns="http://www.w3.org/2000/svg">
<rect width="315.625" height="340" rx="30" fill="#81818B" fill-opacity="0.1"/>
<g clip-path="url(#clip0_1_226)">
<g clip-path="url(#clip1_1_226)">
<path opacity="0.06" d="M79.6848 55H45.9089C34.3612 55 25 64.3612 25 75.9089V109.685C25 121.233 34.3612 130.594 45.9089 130.594H79.6848C91.2325 130.594 100.594 121.233 100.594 109.685V75.9089C100.594 64.3612 91.2325 55 79.6848 55Z" fill="#0089FF"/>
<path d="M62.797 118.537C77.013 118.537 88.5374 107.013 88.5374 92.797C88.5374 78.581 77.013 67.0566 62.797 67.0566C48.5809 67.0566 37.0566 78.581 37.0566 92.797C37.0566 107.013 48.5809 118.537 62.797 118.537Z" fill="#1B76FF"/>
<path fill-rule="evenodd" clip-rule="evenodd" d="M49.387 87.7031H54.0328V105.864H49.387C48.6875 105.864 48.1204 105.324 48.1204 104.658V88.9094C48.1204 88.2432 48.6875 87.7031 49.387 87.7031Z" stroke="white" stroke-width="1.60838" stroke-linecap="round" stroke-linejoin="round"/>
<path fill-rule="evenodd" clip-rule="evenodd" d="M76.0609 102.464C75.7668 104.727 74.2545 105.864 71.566 105.864H57.4984C55.5871 105.864 54.0328 104.401 54.0328 102.602V87.7248C58.4941 87.2899 60.7247 85.7325 60.7247 81.5446V79.5378C60.7247 77.4225 62.5252 75.7078 64.7462 75.7078C65.5926 75.7078 66.4173 75.962 67.1032 76.4345C68.0483 77.0869 68.6506 78.3224 68.6506 80.1015V85.9108C68.6506 86.4049 69.4871 86.8102 70.3236 86.8102H74.8111C76.7015 86.8102 78.2347 88.2335 78.2767 90.0028C78.3048 91.1823 77.5661 94.8334 76.0609 102.464Z" stroke="white" stroke-width="1.60838" stroke-linecap="round" stroke-linejoin="round"/>
</g>
</g>
<rect y="372" width="315.625" height="340" rx="30" fill="#81818B" fill-opacity="0.1"/>
<g clip-path="url(#clip2_1_226)">
<g clip-path="url(#clip3_1_226)">
<path opacity="0.06" d="M80.26 426.734H46.3025C34.6928 426.734 25.2812 436.146 25.2812 447.756V481.713C25.2812 493.323 34.6928 502.734 46.3025 502.734H80.26C91.8697 502.734 101.281 493.323 101.281 481.713V447.756C101.281 436.146 91.8697 426.734 80.26 426.734Z" fill="#F6CA4F"/>
<path d="M63.2813 490.613C77.5738 490.613 89.16 479.027 89.16 464.734C89.16 450.442 77.5738 438.856 63.2813 438.856C48.9889 438.856 37.4026 450.442 37.4026 464.734C37.4026 479.027 48.9889 490.613 63.2813 490.613Z" fill="#FF6D35"/>
<path d="M72.8318 476.407H53.7307C51.3961 476.407 49.486 474.497 49.486 472.163V457.306C49.486 454.972 51.3961 453.062 53.7307 453.062H72.8318C75.1663 453.062 77.0764 454.972 77.0764 457.306V472.163C77.0764 474.497 75.1663 476.407 72.8318 476.407Z" stroke="white" stroke-width="2" stroke-miterlimit="10" stroke-linecap="round" stroke-linejoin="round"/>
<path d="M49.486 458.367L63.2812 466.857L77.0764 458.367" stroke="white" stroke-width="2" stroke-miterlimit="10" stroke-linecap="round" stroke-linejoin="round"/>
</g>
</g>
<defs>
<clipPath id="clip0_1_226">
<rect width="75.5938" height="75.5938" fill="white" transform="translate(25 55)"/>
</clipPath>
<clipPath id="clip1_1_226">
<rect width="75.5938" height="75.5938" fill="white" transform="translate(25 55)"/>
</clipPath>
<clipPath id="clip2_1_226">
<rect width="75.5938" height="75.5938" fill="white" transform="translate(25 427)"/>
</clipPath>
<clipPath id="clip3_1_226">
<rect width="76" height="76" fill="white" transform="translate(25.2812 426.734)"/>
</clipPath>
</defs>
</svg>
