<svg width="316" height="704" viewBox="0 0 316 704" fill="none" xmlns="http://www.w3.org/2000/svg">
<rect width="315.625" height="335.594" rx="30" fill="#81818B" fill-opacity="0.1"/>
<g clip-path="url(#clip0_1_239)">
<g clip-path="url(#clip1_1_239)">
<path opacity="0.06" d="M79.6848 55H45.9089C34.3612 55 25 64.3612 25 75.9089V109.685C25 121.233 34.3612 130.594 45.9089 130.594H79.6848C91.2325 130.594 100.594 121.233 100.594 109.685V75.9089C100.594 64.3612 91.2325 55 79.6848 55Z" fill="#FF6F35"/>
<path d="M62.7969 118.537C77.013 118.537 88.5373 107.013 88.5373 92.797C88.5373 78.581 77.013 67.0566 62.7969 67.0566C48.5809 67.0566 37.0565 78.581 37.0565 92.797C37.0565 107.013 48.5809 118.537 62.7969 118.537Z" fill="#FFCD1D"/>
<path d="M62.7969 76.5791V109.015" stroke="white" stroke-width="2.41257" stroke-linecap="round" stroke-linejoin="round"/>
<path d="M70.1686 82.4766H59.111C57.7425 82.4766 56.43 83.0202 55.4622 83.988C54.4944 84.9556 53.9508 86.2682 53.9508 87.6367C53.9508 89.0053 54.4944 90.3178 55.4622 91.2856C56.43 92.2532 57.7425 92.797 59.111 92.797H66.4827C67.8513 92.797 69.1638 93.3406 70.1316 94.3084C71.0993 95.276 71.643 96.5885 71.643 97.9572C71.643 99.3258 71.0993 100.638 70.1316 101.606C69.1638 102.574 67.8513 103.117 66.4827 103.117H53.9508" stroke="white" stroke-width="2.41257" stroke-linecap="round" stroke-linejoin="round"/>
</g>
</g>
<rect y="367.594" width="315.625" height="335.594" rx="30" fill="#81818B" fill-opacity="0.1"/>
<g clip-path="url(#clip2_1_239)">
<g clip-path="url(#clip3_1_239)">
<path opacity="0.06" d="M79.6848 422.594H45.9089C34.3612 422.594 25 431.955 25 443.503V477.279C25 488.826 34.3612 498.188 45.9089 498.188H79.6848C91.2325 498.188 100.594 488.826 100.594 477.279V443.503C100.594 431.955 91.2325 422.594 79.6848 422.594Z" fill="#5CC97B"/>
<path d="M62.7969 486.131C77.013 486.131 88.5373 474.607 88.5373 460.391C88.5373 446.175 77.013 434.65 62.7969 434.65C48.5809 434.65 37.0565 446.175 37.0565 460.391C37.0565 474.607 48.5809 486.131 62.7969 486.131Z" fill="#5CC97B"/>
<path fill-rule="evenodd" clip-rule="evenodd" d="M65.5539 466.764C63.7109 467.982 61.4812 468.653 59.1054 468.555C53.0962 468.307 48.4258 463.234 48.674 457.225C48.9222 451.215 53.995 446.545 60.0041 446.794C66.0123 447.042 70.6838 452.114 70.4356 458.123C70.3481 460.242 69.661 462.194 68.5447 463.822L75.8813 470.946C76.7865 471.927 76.7541 473.444 75.8241 474.384L75.7813 474.424L75.7361 474.463C74.7251 475.312 73.2105 475.221 72.3062 474.239L65.5539 466.764ZM59.2091 466.043C54.5869 465.853 50.9941 461.95 51.185 457.328C51.3759 452.706 55.2782 449.113 59.9005 449.304C64.5227 449.495 68.1156 453.397 67.9247 458.019C67.7338 462.641 63.8314 466.234 59.2091 466.043Z" fill="white"/>
</g>
</g>
<defs>
<clipPath id="clip0_1_239">
<rect width="75.5938" height="75.5938" fill="white" transform="translate(25 55)"/>
</clipPath>
<clipPath id="clip1_1_239">
<rect width="75.5938" height="75.5938" fill="white" transform="translate(25 55)"/>
</clipPath>
<clipPath id="clip2_1_239">
<rect width="75.5938" height="75.5938" fill="white" transform="translate(25 422.594)"/>
</clipPath>
<clipPath id="clip3_1_239">
<rect width="75.5938" height="75.5938" fill="white" transform="translate(25 422.594)"/>
</clipPath>
</defs>
</svg>
