<svg width="244" height="36" viewBox="0 0 244 36" fill="none" xmlns="http://www.w3.org/2000/svg">
<rect x="0.5" y="0.5" width="35" height="35" rx="17.5" stroke="#81818B" stroke-opacity="0.9"/>
<path d="M14.205 12.2341C14.2048 12.632 14.0466 13.0134 13.7651 13.2946C13.4837 13.5758 13.1021 13.7336 12.7042 13.7334C12.3064 13.7332 11.925 13.575 11.6438 13.2935C11.3626 13.0121 11.2048 12.6305 11.205 12.2326C11.2052 11.8348 11.3634 11.4534 11.6449 11.1722C11.9263 10.891 12.3079 10.7332 12.7057 10.7334C13.1036 10.7336 13.485 10.8918 13.7662 11.1733C14.0473 11.4547 14.2052 11.8363 14.205 12.2341ZM14.25 14.8441H11.25V24.2341H14.25V14.8441ZM18.99 14.8441H16.005V24.2341H18.96V19.3066C18.96 16.5616 22.5375 16.3066 22.5375 19.3066V24.2341H25.5V18.2866C25.5 13.6591 20.205 13.8316 18.96 16.1041L18.99 14.8441Z" fill="#75757F"/>
<rect x="52.5" y="0.5" width="35" height="35" rx="17.5" stroke="#81818B" stroke-opacity="0.9"/>
<path d="M75.359 14.3853C75.9874 13.9777 76.4035 13.4213 76.6072 12.7137C75.9959 13.0564 75.387 13.2914 74.7788 13.4213C74.232 12.8 73.5399 12.4844 72.71 12.4844C71.8988 12.4844 71.2137 12.7852 70.6545 13.3703C70.0984 13.9596 69.8176 14.6755 69.8176 15.5113C69.8176 15.7652 69.848 15.9921 69.9086 16.1844C67.5163 16.0981 65.5362 15.0494 63.9761 13.0309C63.7116 13.5249 63.5794 14.0278 63.5794 14.5481C63.5794 15.6173 64.0064 16.4647 64.8588 17.0868C64.3727 17.0432 63.9442 16.9134 63.5794 16.7005C63.5794 17.464 63.7917 18.1018 64.2172 18.6631C64.6441 19.2187 65.1924 19.5729 65.8621 19.7242C65.6194 19.7899 65.3635 19.8211 65.1007 19.8211C64.858 19.8211 64.6861 19.7998 64.5842 19.7529C64.7631 20.3751 65.1007 20.8797 65.5883 21.266C66.0744 21.6539 66.6336 21.8585 67.262 21.8766C66.226 22.7355 65.0416 23.1604 63.7015 23.1604C63.3733 23.1604 63.1408 23.1554 63 23.1291C64.3198 24.0348 65.789 24.4844 67.4144 24.4844C69.078 24.4844 70.5479 24.0389 71.8273 23.148C73.1067 22.2621 74.0508 21.169 74.6575 19.8819C75.2672 18.5966 75.569 17.2586 75.569 15.8614V15.4768C76.1585 15.0083 76.6352 14.4807 77 13.898C76.4711 14.1388 75.9244 14.3023 75.359 14.3853Z" fill="#75757F"/>
<rect x="104.5" y="0.5" width="35" height="35" rx="17.5" stroke="#81818B" stroke-opacity="0.9"/>
<path d="M124.562 18.951L125 16.6177L122.812 16.6182V14.751C122.812 14.0305 123.155 13.8177 124.125 13.8177H125V11.4844C125 11.4844 124.103 11.4844 123.25 11.4844C121.468 11.4844 120.188 12.6207 120.188 14.751V16.6177H118V18.951H120.188V25.4844H122.812V18.951H124.562Z" fill="#75757F"/>
<rect x="156.5" y="0.5" width="35" height="35" rx="17.5" stroke="#81818B" stroke-opacity="0.9"/>
<path d="M181.666 14.362C181.482 13.6229 180.939 13.0408 180.251 12.8433C179.003 12.4844 174 12.4844 174 12.4844C174 12.4844 168.997 12.4844 167.749 12.8433C167.061 13.0409 166.518 13.6229 166.334 14.362C166 15.7016 166 18.4965 166 18.4965C166 18.4965 166 21.2914 166.334 22.631C166.518 23.3701 167.061 23.9279 167.749 24.1254C168.997 24.4844 174 24.4844 174 24.4844C174 24.4844 179.003 24.4844 180.251 24.1254C180.939 23.9279 181.482 23.3701 181.666 22.631C182 21.2914 182 18.4965 182 18.4965C182 18.4965 182 15.7016 181.666 14.362ZM172.364 21.0341V15.9589L176.545 18.4966L172.364 21.0341Z" fill="#75757F"/>
<rect x="208.5" y="0.5" width="35" height="35" rx="17.5" stroke="#81818B" stroke-opacity="0.9"/>
<path fill-rule="evenodd" clip-rule="evenodd" d="M222.8 10.4844H229.2C231.851 10.4844 234 12.6334 234 15.2844V21.6844C234 24.3353 231.851 26.4844 229.2 26.4844H222.8C220.149 26.4844 218 24.3353 218 21.6844V15.2844C218 12.6334 220.149 10.4844 222.8 10.4844ZM222.8 12.0844C221.033 12.0844 219.6 13.5171 219.6 15.2844V21.6844C219.6 23.4517 221.033 24.8844 222.8 24.8844H229.2C230.967 24.8844 232.4 23.4517 232.4 21.6844V15.2844C232.4 13.5171 230.967 12.0844 229.2 12.0844H222.8ZM226 22.4844C223.791 22.4844 222 20.6935 222 18.4844C222 16.2752 223.791 14.4844 226 14.4844C228.209 14.4844 230 16.2752 230 18.4844C230 20.6935 228.209 22.4844 226 22.4844ZM226 20.8844C227.325 20.8844 228.4 19.8099 228.4 18.4844C228.4 17.1589 227.325 16.0844 226 16.0844C224.675 16.0844 223.6 17.1589 223.6 18.4844C223.6 19.8099 224.675 20.8844 226 20.8844ZM230 15.2844C229.558 15.2844 229.2 14.9262 229.2 14.4844C229.2 14.0425 229.558 13.6844 230 13.6844C230.442 13.6844 230.8 14.0425 230.8 14.4844C230.8 14.9262 230.442 15.2844 230 15.2844Z" fill="#75757F"/>
</svg>
